{
  "asset": {
    "version": "2.0",
    "generator": "THREE.GLTFExporter"
  },
  "scenes": [
    {
      "nodes": [
        0
      ]
    }
  ],
  "scene": 0,
  "nodes": [
    {
      "children": [
        6
      ],
      "matrix": [
        0.01,
        0,
        0,
        0,
        0,
        0.01,
        0,
        0,
        0,
        0,
        0.01,
        0,
        0,
        0,
        0,
        1
      ]
    },
    {
      "matrix": [
        -0.9949073915998089,
        0.08831813854359033,
        -0.048571478711888744,
        0,
        0.08891902906109124,
        0.9959850960593435,
        -0.010348656844876403,
        0,
        0.0474624947816391,
        -0.014614883915219756,
        -0.998766097120466,
        0,
        12.790141562835883,
        -352.7210515045401,
        -430.30154679919497,
        1
      ],
      "name": "Sphere",
      "mesh": 0
    },
    {
      "matrix": [
        0.2941002110029522,
        0.7848505663498678,
        -0.5454490392220989,
        0,
        0.9364149561807633,
        -0.35089461358216817,
        0,
        0,
        -0.19139512984660326,
        -0.5107666381620012,
        -0.8381439885912738,
        0,
        0,
        0,
        0,
        1
      ],
      "name": "Directional Light",
      "extensions": {
        "KHR_lights_punctual": {
          "light": 0
        }
      }
    },
    {
      "matrix": [
        -0.9995592353519658,
        -0.006136415908428963,
        -0.02904616020049571,
        0,
        1.3612229244580046e-16,
        0.9784039876534585,
        -0.20670180682280365,
        0,
        0.0675365033230828,
        -0.4700249005936335,
        -2.224819628361841,
        0,
        -127.85146689203897,
        151.544917496736,
        -1061.2500864089532,
        1.0000000000000002
      ],
      "name": "Point Light",
      "children": [
        2
      ],
      "extensions": {
        "KHR_lights_punctual": {
          "light": 1
        }
      }
    },
    {
      "matrix": [
        0.9420005485062616,
        4.0870776040137256e-19,
        -0.027977772459699794,
        0,
        0.0057830561182972235,
        0.9220635060269705,
        0.1947132154043164,
        0,
        0.027373564140231385,
        -0.1947990759504652,
        0.9216570930302715,
        0,
        -257.82417936837663,
        -111.38116661044225,
        950.2357773109628,
        1
      ],
      "name": "Camera",
      "camera": 0,
      "children": [
        1,
        3
      ]
    },
    {
      "matrix": [
        0.9990456275473482,
        -3.3881317890172014e-21,
        -0.04367876003877869,
        0,
        -0.000021097285090176026,
        0.9999998833505834,
        -0.0004825491933321276,
        0,
        0.043678754943676824,
        0.0004830101649278855,
        0.9990455110092586,
        0,
        -180.32124505632325,
        -13.516989835072055,
        999.0455110092574,
        1
      ],
      "camera": 1
    },
    {
      "name": "globe",
      "children": [
        4,
        5
      ]
    }
  ],
  "cameras": [
    {
      "type": "orthographic",
      "orthographic": {
        "xmag": 19.630712282140962,
        "ymag": 10.337932972655251,
        "zfar": 100000,
        "znear": 0
      },
      "name": "Camera"
    },
    {
      "type": "orthographic",
      "orthographic": {
        "xmag": 8.64,
        "ymag": 4.55,
        "zfar": 100000,
        "znear": 0
      }
    }
  ],
  "bufferViews": [
    {
      "buffer": 0,
      "byteOffset": 0,
      "byteLength": 50700,
      "target": 34962,
      "byteStride": 12
    },
    {
      "buffer": 0,
      "byteOffset": 50700,
      "byteLength": 50700,
      "target": 34962,
      "byteStride": 12
    },
    {
      "buffer": 0,
      "byteOffset": 101400,
      "byteLength": 33800,
      "target": 34962,
      "byteStride": 8
    },
    {
      "buffer": 0,
      "byteOffset": 135200,
      "byteLength": 48384,
      "target": 34963
    }
  ],
  "buffers": [
    {
      "byteLength": 183584,
      "uri": "data:application/octet-stream;base64,"
    }
  ],
  "accessors": [
    {
      "bufferView": 0,
      "componentType": 5126,
      "count": 4225,
      "max": [
        823.0994873046875,
        823.0994873046875,
        823.0994873046875
      ],
      "min": [
        -823.0994873046875,
        -823.0994873046875,
        -823.0994873046875
      ],
      "type": "VEC3"
    },
    {
      "bufferView": 1,
      "componentType": 5126,
      "count": 4225,
      "max": [
        1,
        1,
        1
      ],
      "min": [
        -1,
        -1,
        -1
      ],
      "type": "VEC3"
    },
    {
      "bufferView": 2,
      "componentType": 5126,
      "count": 4225,
      "max": [
        1.0078125,
        1
      ],
      "min": [
        -0.0078125,
        0
      ],
      "type": "VEC2"
    },
    {
      "bufferView": 3,
      "componentType": 5123,
      "count": 24192,
      "max": [
        4224
      ],
      "min": [
        0
      ],
      "type": "SCALAR"
    }
  ],
  "materials": [
    {
      "pbrMetallicRoughness": {
        "baseColorTexture": {
          "index": 0,
          "extensions": {
            "KHR_texture_transform": {
              "offset": [
                0,
                0
              ],
              "scale": [
                1,
                1
              ]
            }
          }
        },
        "metallicFactor": 0,
        "roughnessFactor": 0.995
      },
      "doubleSided": false
    }
  ],
  "textures": [
    {
      "sampler": 0,
      "source": 0
    }
  ],
  "samplers": [
    {
      "magFilter": 9729,
      "minFilter": 9729,
      "wrapS": 10497,
      "wrapT": 10497
    }
  ],
  "images": [
    {
      "mimeType": "image/jpeg",
      "uri": "data:image/jpeg;base64,"
    }
  ],
  "meshes": [
    {
      "primitives": [
        {
          "mode": 4,
          "attributes": {
            "POSITION": 0,
            "NORMAL": 1,
            "TEXCOORD_0": 2
          },
          "extras": {
            "parameters": {
              "width": 1646.1990161364972,
              "widthSegments": 64,
              "heightSegments": 64,
              "phiStart": 0,
              "phiLength": 6.283185307179586,
              "thetaStart": 0,
              "thetaLength": 180,
              "height": 1646.1990161364972,
              "depth": 1646.1990161364972,
              "type": "SphereGeometry"
            },
            "type": "SphereGeometry"
          },
          "indices": 3,
          "material": 0
        }
      ]
    }
  ],
  "extensions": {
    "KHR_lights_punctual": {
      "lights": [
        {
          "name": "Directional Light",
          "color": [
            0.9499772451456311,
            1,
            0.9711868932038835
          ],
          "intensity": 1,
          "type": "directional"
        },
        {
          "name": "Point Light",
          "color": [
            0.1647058823529414,
            0.6784313725490196,
            0.5582196078431374
          ],
          "intensity": 1.282,
          "type": "point",
          "range": 3252
        }
      ]
    }
  },
  "extensionsUsed": [
    "KHR_texture_transform",
    "KHR_lights_punctual"
  ]
}