<svg xmlns="http://www.w3.org/2000/svg" width="203.28" height="17.496" viewBox="0 0 203.28 17.496">
  <path id="Path_10" data-name="Path 10" d="M16.44,24h1.824L10.272,7.2H8.208L.24,24H9.7V22.416H2.808L9.24,8.736ZM27.216,7.2H21.048V8.808h6.168c5.832,0,7.9,2.52,7.9,6.792,0,4.3-2.064,6.816-7.9,6.816h-4.56V14.928H21.048V24h6.168c6.024,0,9.552-2.592,9.552-8.4C36.768,9.816,33.24,7.2,27.216,7.2ZM54.648,20.28c0-2.544-.648-3.552-2.568-4.056a4.057,4.057,0,0,0,3.22-4.248c0-2.808-1.944-4.776-6.144-4.776h-8.88V24H41.86V17.016H49.3c3.36,0,3.7,1.536,3.7,3.6A5.575,5.575,0,0,0,53.7,24h1.944C55.1,23.472,54.648,22.392,54.648,20.28ZM41.856,15.624V8.808h7.3c3.36,0,4.512,1.32,4.512,3.552,0,1.392-.912,3.264-4.248,3.264ZM73.176,24H75L67.008,7.2H64.944L56.976,24h9.456V22.416H59.544l6.432-13.68ZM77.784,7.2V24h1.608V7.2Zm19.968,0V22.128L86.256,7.2H84.1V24h1.58V9.072L97.176,24h2.16V7.2Zm27.864,0-4.152,12.744L117.648,7.2H114l-3.816,12.744L106.008,7.2h-4.1L107.856,24h4.536l3.432-11.472L119.256,24h4.536l5.952-16.8ZM140.4,6.864c-4.848,0-10.032,2.328-10.032,8.736,0,6.432,5.184,8.76,10.032,8.76s10.008-2.328,10.008-8.76C150.408,9.192,145.248,6.864,140.4,6.864Zm0,14.568c-4.176,0-6.072-2.52-6.072-5.832,0-3.288,1.9-5.808,6.072-5.808s6.072,2.52,6.072,5.808C146.472,18.912,144.576,21.432,140.4,21.432Zm27.552-.408H157.08V7.2h-3.888V24h14.76ZM170.976,24h3.864V17.3h10.224V14.352H170.976Zm0-16.8v2.952h14.76V7.2Zm31.632,6.7H188.52v2.952h14.088ZM188.52,21.024V24h15V21.024ZM203.28,7.2H188.52v2.952h14.76Z" transform="translate(-0.24 -6.864)"/>
</svg>
